<svg id="图层_1" data-name="图层 1" xmlns="http://www.w3.org/2000/svg" viewBox="0 0 200 53.46"><defs><style>.cls-1{fill:#fff;}</style></defs><title>navinfo_logo</title><path class="cls-1" d="M-383.79-72.65h4.7V-86.18l12.81,11.44s1.27,2.18,6.45,2.18V-92.63h-4.64V-79.1l-14.17-12.72a6.54,6.54,0,0,0-2.78-.94h-2.37Z" transform="translate(384 97.03)"/><path class="cls-1" d="M-357.06-72.56h4.72v-13a3.12,3.12,0,0,1,2.55-3h10.49a3,3,0,0,1,2.45,3v3h-12.53v4.13h12.49v5.9h4.76V-86.68s.37-5-5.67-6.13h-13.95a6.36,6.36,0,0,0-5.36,6.44c0,5.68.05,13.81.05,13.81" transform="translate(384 97.03)"/><path class="cls-1" d="M-329.54-72.6H-328a5.84,5.84,0,0,0,3.86-1.23A17.31,17.31,0,0,0-321.77-76c.95-1.09,16-16.71,16-16.71h-5.82l-13.31,13.53V-92.81h-4.68Z" transform="translate(384 97.03)"/><rect class="cls-1" x="80.79" y="4.29" width="4.76" height="20.17"/><path class="cls-1" d="M-295.84-72.65h4.7V-86.18l12.81,11.44s1.27,2.18,6.45,2.18V-92.63h-4.63V-79.1l-14.18-12.72a6.49,6.49,0,0,0-2.77-1h-2.38Z" transform="translate(384 97.03)"/><path class="cls-1" d="M-248.42-88.69v-4h-15.12s-4.79-.1-5.72,5.51v14.69h4.75v-6.08h16v-4h-16.09v-3s.22-3.13,3.1-3.13Z" transform="translate(384 97.03)"/><path class="cls-1" d="M-225.8-92.77h-14.08c-6,.46-6,6.18-6,6.18v8.36a6.13,6.13,0,0,0,5.45,5.63h14.81a6.25,6.25,0,0,0,5.82-5.81v-7.91c-.32-6.49-6.05-6.45-6.05-6.45m1.28,13.45a3.14,3.14,0,0,1-3.32,2.72h-10.63a3.25,3.25,0,0,1-2.72-2.82v-6.26a3.42,3.42,0,0,1,2.45-2.95h11.86a3.05,3.05,0,0,1,2.36,2.86Z" transform="translate(384 97.03)"/><path class="cls-1" d="M-383.79-72.65h4.7V-86.18l12.81,11.44s1.27,2.18,6.45,2.18V-92.63h-4.64V-79.1l-14.17-12.72a6.54,6.54,0,0,0-2.78-.94h-2.37Z" transform="translate(384 97.03)"/><path class="cls-1" d="M-357.06-72.56h4.72v-13a3.12,3.12,0,0,1,2.55-3h10.49a3,3,0,0,1,2.45,3v3h-12.53v4.13h12.49v5.9h4.76V-86.68s.37-5-5.67-6.13h-13.95a6.36,6.36,0,0,0-5.36,6.44c0,5.68.05,13.81.05,13.81" transform="translate(384 97.03)"/><path class="cls-1" d="M-329.54-72.6H-328a5.84,5.84,0,0,0,3.86-1.23A17.31,17.31,0,0,0-321.77-76c.95-1.09,16-16.71,16-16.71h-5.82l-13.31,13.53V-92.81h-4.68Z" transform="translate(384 97.03)"/><rect class="cls-1" x="80.79" y="4.29" width="4.76" height="20.17"/><path class="cls-1" d="M-295.84-72.65h4.7V-86.18l12.81,11.44s1.27,2.18,6.45,2.18V-92.63h-4.63V-79.1l-14.18-12.72a6.49,6.49,0,0,0-2.77-1h-2.38Z" transform="translate(384 97.03)"/><path class="cls-1" d="M-248.42-88.69v-4h-15.12s-4.79-.1-5.72,5.51v14.69h4.75v-6.08h16v-4h-16.09v-3s.22-3.13,3.1-3.13Z" transform="translate(384 97.03)"/><path class="cls-1" d="M-225.8-92.77h-14.08c-6,.46-6,6.18-6,6.18v8.36a6.13,6.13,0,0,0,5.45,5.63h14.81a6.25,6.25,0,0,0,5.82-5.81v-7.91c-.32-6.49-6.05-6.45-6.05-6.45m1.28,13.45a3.14,3.14,0,0,1-3.32,2.72h-10.63a3.25,3.25,0,0,1-2.72-2.82v-6.26a3.42,3.42,0,0,1,2.45-2.95h11.86a3.05,3.05,0,0,1,2.36,2.86Z" transform="translate(384 97.03)"/><path class="cls-1" d="M-186.45-80.77-210.36-97V-89a6.63,6.63,0,0,0,2.92,5.18l16.3,10.8,2.47,2.07,1.95,1.62a6.69,6.69,0,0,1,2.52,3.67h0c.1-.36.17-2.5.17-2.5v-5.05c.07-3.46.24-5.37-2.42-7.59" transform="translate(384 97.03)"/><path class="cls-1" d="M-184.59-64.3a5.81,5.81,0,0,0-2.49-4.57l-1.33-1.1-.79.65-2.47,2.06-16.17,10.72a6.67,6.67,0,0,0-2.52,4.89v8.08L-187-59.47a5.87,5.87,0,0,0,2.42-4.6Z" transform="translate(384 97.03)"/><path class="cls-1" d="M-373.16-53.68a4.63,4.63,0,0,0,.13,1,1.76,1.76,0,0,0,.57,1,2.45,2.45,0,0,0,1.1.52,5.84,5.84,0,0,0,1.29.16h2.8v1c0,.42.13,1-.37,1.39a.79.79,0,0,1-.54.21h-13.14v-2.67h2.86a3.55,3.55,0,0,0,1.41-.27,2,2,0,0,0,1-.75,2.63,2.63,0,0,0,.42-1.18,9.6,9.6,0,0,0,.09-1.22v-8h2.41Zm8.61,5V-62.58a3.19,3.19,0,0,0-3-2.54H-384v19.37h16.21C-364.25-45.75-364.55-48.67-364.55-48.67Zm-13.84-6c0,.41-.08.68-.26.81a3.62,3.62,0,0,1-1.5.19h-1.17v-8.88h2.93Zm9.12,1a1.82,1.82,0,0,1-1-.16c-.16-.1-.24-.35-.24-.74v-8h2s1.2,0,1.2,1v7.86Z" transform="translate(384 97.03)"/><path class="cls-1" d="M-330.89-59.85l-1,1.83h-1.89l3.41-7.08H-333s-2.89,6-3.06,6.5a3.23,3.23,0,0,0-.21.82v2.22h2.92s-1.27,1.88-1.85,3a5,5,0,0,0-.5,1.62v1.24h6.85v-2.56h-3.44l4.19-7.56Z" transform="translate(384 97.03)"/><rect class="cls-1" x="48.11" y="48.97" width="7.28" height="2.4"/><path class="cls-1" d="M-315.63-56.45v-2.4h-3.26V-62h3.23V-64.3h-3.26l.08-1h-2.78v1H-324l.44-1h-2.84a7.56,7.56,0,0,1-2.06,2.37l0,2.81,1.22-.79V-45.6h11.59v-2.26h-3.23v-3.22h3.23v-2.33h-3.23v-3Zm-6.09,8.5h-2.79V-51.1h2.79Zm0-5.45h-2.79v-3.15h2.79Zm0-5.45h-2.8V-62h2.8Z" transform="translate(384 97.03)"/><path class="cls-1" d="M-270.54-49.26c-.06,1-.93,1-1.36,1h-12.81V-62.64h12.85s1.32.11,1.32,1.1Zm2.65,1.06V-62.46a3,3,0,0,0-2.75-2.66h-16.75v19.37h17.1A2.77,2.77,0,0,0-267.89-48.2Z" transform="translate(384 97.03)"/><path class="cls-1" d="M-283-53.82h2.45a2.54,2.54,0,0,0,1.33.68h7.38v1.67h-7A4.7,4.7,0,0,1-283-53.82Z" transform="translate(384 97.03)"/><path class="cls-1" d="M-283-51.33h2.45a2.54,2.54,0,0,0,1.33.68h7.38V-49h-7A4.7,4.7,0,0,1-283-51.33Z" transform="translate(384 97.03)"/><path class="cls-1" d="M-281.46-62.43h2.26l-.34,1h8.05v1.68l-4.06,3.1,1,.45a4.47,4.47,0,0,0,1.47.2h1.57v1.71h-3.07a5.67,5.67,0,0,1-1.75-.47l-1-.51-.8.48a2.09,2.09,0,0,1-1.45.48h-4.28V-56h3s1.14-.11,1.38-.44l-2.65-1.86h3.32l1.23.58,2.64-2h-5.72a9.21,9.21,0,0,1-3.23,1.78v-2.28A4.4,4.4,0,0,0-281.46-62.43Z" transform="translate(384 97.03)"/><path class="cls-1" d="M-228.86-59.47h-1.44a11.22,11.22,0,0,0,.3-2.82h1.15V-64.5h-3.81v-.86h-2.65l0,.84h-3.9v2.25h1.37a13.08,13.08,0,0,0,.26,2.8h-1.65v2.21h10.39Zm-3.73,0h-2.81a6.94,6.94,0,0,1-.21-2.82h3.37S-232.2-59.76-232.59-59.47Z" transform="translate(384 97.03)"/><polygon class="cls-1" points="155.18 41.29 151.32 41.29 151.32 40.07 148.78 40.07 148.78 41.27 144.72 41.27 144.72 43.55 148.74 43.55 148.74 51.44 151.34 51.44 151.34 43.52 155.18 43.52 155.18 41.29"/><path class="cls-1" d="M-238.42-49.77a3.17,3.17,0,0,1-.87,1.9l0,2.35a4,4,0,0,0,2.9-2.79l.44-4.08-2.16,0S-238.27-51-238.42-49.77Z" transform="translate(384 97.03)"/><path class="cls-1" d="M-225.58-60v-2.18H-222c2.61-.33,2.53-1.81,2.53-1.81v-1.35h-2.4V-65a.49.49,0,0,1-.45.42h-5.77v16.08c0,.26-.07.58-.62.6a.58.58,0,0,1-.61-.49l-.53-4h-2.39l.6,4.75a3,3,0,0,0,2,2.11h1.95c2.17-.2,2.15-3.13,2.15-3.13v-8.93H-223v11.91h2.42V-57.59h1.23V-60Z" transform="translate(384 97.03)"/></svg>