{
  "accessors": [
    {
      "name": "pCylinder0_1_positions",
      "componentType": 5126,
      "count": 256,
      "min": [
        -3.7471001148223877,
        0.047600001096725464,
        -3.4140000343322754
      ],
      "max": [
        4.4882001876831055,
        3.509999990463257,
        4.821400165557861
      ],
      "type": "VEC3",
      "bufferView": 0,
      "byteOffset": 0
    },
    {
      "name": "pCylinder0_1_normals",
      "componentType": 5126,
      "count": 256,
      "min": [
        -0.7279000282287598,
        -0.6858000159263611,
        -0.7279000282287598
      ],
      "max": [
        0.7279000282287598,
        0.8046000003814697,
        0.7279000282287598
      ],
      "type": "VEC3",
      "bufferView": 0,
      "byteOffset": 4512
    },
    {
      "name": "pCylinder0_1_0_indices",
      "componentType": 5123,
      "count": 1524,
      "min": [
        0
      ],
      "max": [
        255
      ],
      "type": "SCALAR",
      "bufferView": 1,
      "byteOffset": 0
    },
    {
      "name": "pCylinder3_1_positions",
      "componentType": 5126,
      "count": 120,
      "min": [
        -1.3203999996185303,
        1.0843000411987305,
        -1.019700050354004
      ],
      "max": [
        2.061500072479248,
        79.58350372314453,
        2.3622000217437744
      ],
      "type": "VEC3",
      "bufferView": 0,
      "byteOffset": 3072
    },
    {
      "name": "pCylinder3_1_normals",
      "componentType": 5126,
      "count": 120,
      "min": [
        -0.7391999959945679,
        -0.7440999746322632,
        -0.7391999959945679
      ],
      "max": [
        0.7391999959945679,
        0.7440999746322632,
        0.7391999959945679
      ],
      "type": "VEC3",
      "bufferView": 0,
      "byteOffset": 7584
    },
    {
      "name": "pCylinder3_1_0_indices",
      "componentType": 5123,
      "count": 708,
      "min": [
        0
      ],
      "max": [
        119
      ],
      "type": "SCALAR",
      "bufferView": 1,
      "byteOffset": 3048
    }
  ],
  "asset": {
    "generator": "obj2gltf",
    "version": "2.0"
  },
  "buffers": [
    {
      "name": "pole",
      "byteLength": 13488,
      "uri": "data:application/octet-stream;base64,"
    }
  ],
  "bufferViews": [
    {
      "name": "bufferView_0",
      "buffer": 0,
      "byteLength": 9024,
      "byteOffset": 0,
      "byteStride": 12,
      "target": 34962
    },
    {
      "name": "bufferView_1",
      "buffer": 0,
      "byteLength": 4464,
      "byteOffset": 9024,
      "target": 34963
    }
  ],
  "materials": [
    {
      "name": "01___Default",
      "pbrMetallicRoughness": {
        "baseColorFactor": [
          0.5882,
          0.5882,
          0.5882,
          1
        ],
        "metallicFactor": 0,
        "roughnessFactor": 0.99
      },
      "emissiveFactor": [
        0,
        0,
        0
      ],
      "alphaMode": "OPAQUE",
      "doubleSided": false
    }
  ],
  "meshes": [
    {
      "name": "pCylinder0_1",
      "primitives": [
        {
          "attributes": {
            "POSITION": 0,
            "NORMAL": 1
          },
          "indices": 2,
          "material": 0,
          "mode": 4
        }
      ]
    },
    {
      "name": "pCylinder3_1",
      "primitives": [
        {
          "attributes": {
            "POSITION": 3,
            "NORMAL": 4
          },
          "indices": 5,
          "material": 0,
          "mode": 4
        }
      ]
    }
  ],
  "nodes": [
    {
      "name": "pCylinder0",
      "mesh": 0
    },
    {
      "name": "pCylinder3",
      "mesh": 1
    }
  ],
  "scene": 0,
  "scenes": [
    {
      "nodes": [
        0,
        1
      ]
    }
  ]
}
